<svg width="255" height="250" fill="none" xmlns="http://www.w3.org/2000/svg"><g filter="url(#a)"><path d="M95.07 43.38V42.1c0-1.16.864-2.1 1.93-2.1 1.066 0 1.93.94 1.93 2.1v1.28c0 1.16-.864 2.1-1.93 2.1-1.066 0-1.93-.94-1.93-2.1zm-18.664 6.569c.357.674 1.006 1.05 1.673 1.05.328 0 .66-.09.963-.28.923-.58 1.24-1.865.707-2.87l-.587-1.108c-.533-1.005-1.713-1.35-2.636-.77-.923.58-1.24 1.865-.707 2.87l.587 1.108zm38.551.77c.304.19.636.281.963.281.667 0 1.316-.377 1.674-1.05l.587-1.108c.533-1.005.217-2.29-.707-2.87-.922-.58-2.103-.236-2.636.77l-.587 1.107c-.533 1.004-.217 2.29.706 2.87zm14.819 15.36c.328 0 .66-.09.964-.282l1.017-.64c.923-.58 1.239-1.865.706-2.87-.533-1.004-1.713-1.348-2.636-.768l-1.018.64c-.923.58-1.239 1.865-.706 2.87.358.673 1.006 1.05 1.673 1.05zm5.017 37.26c-2.506 5.407-9.509 9.039-17.427 9.039-5.427 0-10.512-1.704-13.968-4.621-1.98 1.477-4.07 2.428-6.141 2.718a1.781 1.781 0 0 1-.513 0c-2.072-.29-4.162-1.241-6.142-2.718-3.456 2.918-8.54 4.621-13.968 4.621-7.918 0-14.92-3.632-17.427-9.039a2.268 2.268 0 0 1 0-1.893c1.85-3.99 6.078-7.016 11.429-8.327-2.777-4.293-3.79-9.366-2.533-13.705.154-.531.495-.974.949-1.231 3.17-1.799 7.193-1.929 11.108-.435.58-2.096 1.496-3.92 2.735-5.342a1.842 1.842 0 0 1 1.647-.637c1.012.142 2.029.442 3.035.884 2.042-4.698 5.052-8.201 8.618-9.982a1.788 1.788 0 0 1 1.61 0c3.564 1.78 6.573 5.281 8.615 9.976a11.707 11.707 0 0 1 3.039-.878c.611-.086 1.222.151 1.646.637 1.24 1.422 2.154 3.246 2.735 5.341 3.916-1.493 7.937-1.362 11.108.436.454.257.795.7.949 1.23 1.258 4.34.244 9.412-2.533 13.705 5.351 1.312 9.58 4.337 11.429 8.328a2.267 2.267 0 0 1 0 1.893zm-23.368-5.96c2.095-.567 4.177-1.734 6.011-3.409 3.746-3.421 5.708-8.402 4.982-12.428-2.267-.959-5.095-.81-7.882.407.268 3.923-.382 8.36-1.987 12.727a35.024 35.024 0 0 1-1.124 2.703zM90.962 74.7c2.223 1.723 4.297 4.108 6.034 6.96 1.746-2.883 3.818-5.264 6.036-6.977-1.487-3.496-3.614-6.23-6.032-7.741-2.422 1.513-4.552 4.254-6.038 7.758zM76.563 93.97c1.834 1.675 3.916 2.843 6.013 3.41a34.839 34.839 0 0 1-1.125-2.704c-1.605-4.367-2.255-8.804-1.987-12.727-2.787-1.217-5.614-1.366-7.882-.408-.726 4.026 1.235 9.008 4.981 12.429zm10.99 11.001a27.685 27.685 0 0 1-2.369-3.001c-3.825-.071-7.815-1.778-11.102-4.781a20.354 20.354 0 0 1-.409-.383c-4.7.633-8.64 2.743-10.494 5.586 2.254 3.45 7.582 5.785 13.454 5.785 4.17 0 8.158-1.197 10.92-3.206zm8.697-15.84c-1.923-5.234-5.14-9.549-8.52-11.727a1.89 1.89 0 0 1-.267-.167 9.905 9.905 0 0 0-2.407-1.084c-.8 1.246-1.336 2.839-1.602 4.654-.007.11-.022.221-.046.33-.445 3.506.086 7.788 1.626 11.978 1.555 4.229 3.953 7.858 6.6 10.245.062.048.122.101.18.159 1.434 1.258 2.937 2.149 4.415 2.573 2.372-3.692 2.419-10.438.02-16.962zm12.715 3.984c1.54-4.189 2.071-8.47 1.627-11.974a2.31 2.31 0 0 1-.047-.34c-.266-1.812-.802-3.404-1.602-4.648a9.91 9.91 0 0 0-2.374 1.06 1.89 1.89 0 0 1-.34.212c-2.625 1.698-5.159 4.689-7.067 8.455.237.553.46 1.116.671 1.69 2.189 5.953 2.602 12.038 1.335 16.771a15.85 15.85 0 0 0 1.024-.827c.054-.054.109-.103.167-.149 2.65-2.387 5.051-6.018 6.606-10.25zm21.856 9.277c-1.854-2.843-5.794-4.952-10.495-5.587-.134.13-.27.258-.409.384-3.287 3.003-7.277 4.709-11.101 4.781a27.696 27.696 0 0 1-2.369 3.001c2.762 2.008 6.75 3.206 10.919 3.206 5.873 0 11.201-2.335 13.455-5.785zm-15.111 15.539c-.804-.762-2.023-.671-2.723.204-1.217 1.521-6.982 3.663-15.987 3.663-9.005 0-14.77-2.142-15.987-3.663-.7-.875-1.919-.966-2.723-.204-.803.762-.888 2.089-.187 2.964C81.118 124.663 90.167 126 97 126c6.833 0 15.882-1.337 18.898-5.105.699-.875.615-2.202-.188-2.964zM71.629 73.478c1.025.314 2.091-.336 2.38-1.453C76.895 60.878 86.35 53.093 97 53.093s20.105 7.785 22.991 18.932c.239.927 1.014 1.532 1.856 1.532.173 0 .35-.026.525-.08 1.026-.314 1.623-1.475 1.334-2.591C120.354 57.936 109.372 48.89 97 48.89s-23.354 9.045-26.706 21.995c-.289 1.117.309 2.277 1.335 2.592zM97 118.939c1.658 0 7.222-.193 9.202-2.669.7-.875.616-2.202-.188-2.964-.8-.758-2.011-.671-2.712.192-.44.435-2.725 1.239-6.302 1.239-3.578 0-5.863-.804-6.303-1.24-.701-.862-1.912-.949-2.712-.191-.803.762-.888 2.09-.187 2.964 1.98 2.477 7.544 2.669 9.202 2.669zM62.243 65.157l1.017.64c.303.191.636.282.963.282.667 0 1.316-.376 1.673-1.05.534-1.005.218-2.29-.705-2.87l-1.017-.64c-.922-.58-2.103-.237-2.637.768-.533 1.005-.217 2.29.706 2.87z" fill="#fff"/></g><defs><filter id="a" x="-61" y="-76" width="316" height="326" filterUnits="userSpaceOnUse" color-interpolation-filters="sRGB"><feFlood flood-opacity="0" result="BackgroundImageFix"/><feColorMatrix in="SourceAlpha" values="0 0 0 0 0 0 0 0 0 0 0 0 0 0 0 0 0 0 127 0" result="hardAlpha"/><feOffset dy="4"/><feGaussianBlur stdDeviation="60"/><feColorMatrix values="0 0 0 0 1 0 0 0 0 1 0 0 0 0 1 0 0 0 1 0"/><feBlend in2="BackgroundImageFix" result="effect1_dropShadow_3_144"/><feBlend in="SourceGraphic" in2="effect1_dropShadow_3_144" result="shape"/></filter></defs></svg>