<svg width="75" height="75" viewBox="0 0 75 75" fill="none" xmlns="http://www.w3.org/2000/svg">
<path d="M37.5 3.27835e-06C58.1773 3.27835e-06 75 16.8227 75 37.5C75 58.1773 58.1773 75 37.5 75C16.8227 75 3.27835e-06 58.1773 3.27835e-06 37.5C3.27835e-06 16.8227 16.8227 3.27835e-06 37.5 3.27835e-06ZM43.2692 49.0385C43.2692 49.8035 43.5731 50.5372 44.1141 51.0782C44.6551 51.6192 45.3888 51.9231 46.1539 51.9231C46.9189 51.9231 47.6526 51.6192 48.1936 51.0782C48.7345 50.5372 49.0385 49.8035 49.0385 49.0385V25.9615C49.0385 25.1965 48.7345 24.4628 48.1936 23.9218C47.6526 23.3808 46.9189 23.0769 46.1539 23.0769C45.3888 23.0769 44.6551 23.3808 44.1141 23.9218C43.5731 24.4628 43.2692 25.1965 43.2692 25.9615V49.0385ZM25.9615 49.0385C25.9615 49.8035 26.2655 50.5372 26.8064 51.0782C27.3474 51.6192 28.0811 51.9231 28.8462 51.9231C29.6112 51.9231 30.3449 51.6192 30.8859 51.0782C31.4269 50.5372 31.7308 49.8035 31.7308 49.0385V25.9615C31.7308 25.1965 31.4269 24.4628 30.8859 23.9218C30.3449 23.3808 29.6112 23.0769 28.8462 23.0769C28.0811 23.0769 27.3474 23.3808 26.8064 23.9218C26.2655 24.4628 25.9615 25.1965 25.9615 25.9615V49.0385Z" fill="white"/>
</svg>
